Coordinates
version=1
nRows=9
nColumns=40
inDegrees=yes

Units are S.I. units (second, meters, Newtons, ...)
If the header above contains a line with 'inDegrees', this indicates whether rotational values are in degrees (yes) or radians (no).

endheader
time	pelvis_tilt	pelvis_list	pelvis_rotation	pelvis_tx	pelvis_ty	pelvis_tz	hip_flexion_r	hip_adduction_r	hip_rotation_r	knee_angle_r	knee_angle_r_beta	ankle_angle_r	subtalar_angle_r	mtp_angle_r	hip_flexion_l	hip_adduction_l	hip_rotation_l	knee_angle_l	knee_angle_l_beta	ankle_angle_l	subtalar_angle_l	mtp_angle_l	lumbar_extension	lumbar_bending	lumbar_rotation	arm_flex_r	arm_add_r	arm_rot_r	elbow_flex_r	pro_sup_r	wrist_flex_r	wrist_dev_r	arm_flex_l	arm_add_l	arm_rot_l	elbow_flex_l	pro_sup_l	wrist_flex_l	wrist_dev_l
     16.94999999999999928946	     29.54272769728316916371	    -10.32582419647218152647	    179.03970460530419472889	      0.35373588250815596323	      0.66666005604222833281	     -0.59391321919741191238	     95.83575451470294126466	     -7.01589846031784869496	     11.87623585967154227205	     87.77674297855020313364	      1.53199317165251547301	     24.54706057814489739144	      0.00000000000000000000	      0.00000000000000000000	     89.82175782310284262167	     -4.79449518703676869080	    -10.45714939970242163270	     87.42325614643792164316	      1.52582366256971169172	     27.02260301267228470579	      0.00000000000000000000	      0.00000000000000000000	    -40.09608698202244880804	     -7.33717724812968175030	     -6.48852544450343859950	     54.94894142869635089710	    -13.50506594482388855738	     39.34058621794858368048	     11.09179477904558019929	      6.84820815956594142193	      0.00000000000000000000	      0.00000000000000000000	     62.52196987128747451834	    -16.81889562131220472452	     40.11549684435775020575	     15.64040390952867731755	     87.62335654990569366873	      0.00000000000000000000	      0.00000000000000000000
     16.95499999999999829470	     29.57186395006061019330	    -10.33509403404969972939	    178.89521739306454151119	      0.35345932283559355902	      0.66721831020361788145	     -0.59417135057926062647	     95.78612334426743757376	     -6.86261579862419424103	     11.86202688627682100275	     87.68695925641839039599	      1.53042615008661964104	     24.50724936570172118877	      0.00000000000000000000	      0.00000000000000000000	     89.78525284243015391894	     -4.95321518457323506368	    -10.47249974750624801345	     87.41613699050354568953	      1.52569940985869401118	     27.03265056451929382320	      0.00000000000000000000	      0.00000000000000000000	    -40.12242762645334437366	     -7.44931927923198600183	     -6.39220914643534676713	     54.91856280588579863888	    -13.47886674618005287130	     39.34884181072462894235	     11.08817284626139532122	      6.84727246768435282576	      0.00000000000000000000	      0.00000000000000000000	     62.56470322731473743261	    -16.82287599564412872155	     40.10120951208448758507	     15.65705805321324994850	     87.62056954564874899916	      0.00000000000000000000	      0.00000000000000000000
     16.96000000000000085265	     29.72938423100768901008	    -10.31572606160405314313	    178.90512553572150977743	      0.35347356160758031107	      0.66818145284667518347	     -0.59384451417370320847	     95.74102270359539090805	     -6.81755991326584176448	     11.89450877802756245671	     87.35986554003069670671	      1.52471728777306991809	     24.43281040733836562140	      0.00000000000000000000	      0.00000000000000000000	     89.79717251509632092166	     -4.93285347021655695698	    -10.50697840367130808659	     87.14721152539584636543	      1.52100577505010758905	     26.93807588656713392083	      0.00000000000000000000	      0.00000000000000000000	    -40.09948183818074340934	     -7.38453025212844149650	     -6.38290333560326494933	     55.01008226538087342306	    -13.51189474807352652874	     39.34038758127648804930	     11.14058482473675582014	      6.85270352792447390300	      0.00000000000000000000	      0.00000000000000000000	     62.59346692376923471102	    -16.80747952119106969349	     40.07937310047944379221	     15.65223887877361974574	     87.61604036006754370192	      0.00000000000000000000	      0.00000000000000000000
     16.96499999999999985789	     29.76307281613514277296	    -10.31332937282665263012	    178.79106279994536521372	      0.35322891953649065977	      0.66870725308338307968	     -0.59396503267524769498	     95.71557178290517242658	     -6.71370390492519142356	     11.87750767236603621768	     87.30269731544956357538	      1.52371951402660954500	     24.39418842691430810987	      0.00000000000000000000	      0.00000000000000000000	     89.76307680286770107614	     -5.05592261502715878407	    -10.52351751238233745767	     87.11784002663178227976	      1.52049314569042914869	     26.93804027132251022181	      0.00000000000000000000	      0.00000000000000000000	    -40.11625438549033617619	     -7.45688990511586169418	     -6.29686794768388136134	     54.99259016621584095219	    -13.50169601129839058729	     39.34601953428834519855	     11.13379485663842594079	      6.85173290430893100478	      0.00000000000000000000	      0.00000000000000000000	     62.61285754996583818865	    -16.81138225379634221213	     40.06207826218382450634	     15.66487491510877561041	     87.61365722404069344975	      0.00000000000000000000	      0.00000000000000000000
     16.96999999999999886313	     29.90961644940497166090	    -10.33478013252556415580	    178.90549070797189301629	      0.35313563008895149098	      0.66959748637023530637	     -0.59321958964781529300	     95.73860011605155762027	     -6.96689407592940934677	     11.83017707448767197320	     87.04200431995192843715	      1.51916956291828908476	     24.22570831724885920266	      0.00000000000000000000	      0.00000000000000000000	     89.77157978571976570947	     -4.59113805685874876161	    -10.31106291622714543621	     86.72377979483501064806	      1.51361549719440335871	     26.95252207320694282089	      0.00000000000000000000	      0.00000000000000000000	    -40.10118748708059399632	     -7.34269928256729009775	     -6.39840910074332924751	     55.06656582851064030137	    -13.54266412348159320800	     39.30787584075640239689	     11.18605909029672140775	      6.85683050538385341355	      0.00000000000000000000	      0.00000000000000000000	     62.59879959601487087184	    -16.77460717461921291260	     39.92071513875450960995	     15.68283379683835043750	     87.60838446259946010741	      0.00000000000000000000	      0.00000000000000000000
     16.97500000000000142109	     29.98104533133737703565	    -10.27027087861492482546	    178.90330583447561707544	      0.35305136599455100299	      0.67018250523720501732	     -0.59324454377333735167	     95.69586068766679431974	     -6.84294725239779477732	     11.84973175330010874973	     86.95832134696306070509	      1.51770901951177572542	     24.19854380361161361179	      0.00000000000000000000	      0.00000000000000000000	     89.76829826449005622635	     -4.82885496237410105635	    -10.44849864404060468814	     86.72885393486497207505	      1.51370405764463344944	     26.93633902063728058351	      0.00000000000000000000	      0.00000000000000000000	    -40.11406045297964340079	     -7.29531684241953737313	     -6.35368233025984174844	     55.07497741254465495331	    -13.53655924968929191721	     39.31015391064077846295	     11.18208970883003772201	      6.85575974472981819474	      0.00000000000000000000	      0.00000000000000000000	     62.63198985204225266443	    -16.77485664242365714927	     39.89681874500968916664	     15.69380858176528192871	     87.60727919918741690708	      0.00000000000000000000	      0.00000000000000000000
     16.98000000000000042633	     31.03433759014029291734	    -10.96561254317560241134	    178.60955163434556425273	      0.35536403581791153883	      0.67110987761098928051	     -0.59179878417665021662	     97.36553335049690360847	     -7.76738187087657649954	     11.30887262823539529677	     87.25967349939190853547	      1.52296860677963108444	     22.69733866378313180689	      0.00000000000000000000	      0.00000000000000000000	     90.54258324848711936284	     -4.84950098239870186489	    -11.05307900792328901218	     85.95827983566988450548	      1.50025500248308985007	     26.51575219413505735133	      0.00000000000000000000	      0.00000000000000000000	    -39.29587082027107669546	     -7.99684325186553657261	     -6.42897892321009667427	     55.35746202909000857062	    -13.60857030327152727978	     39.42273836130112840692	     11.11073848329311530847	      6.85041078149996529589	      0.00000000000000000000	      0.00000000000000000000	     62.80631525031103024048	    -16.60045235371521954448	     39.76522196425224819905	     15.52676617448486062756	     87.60171418216782512900	      0.00000000000000000000	      0.00000000000000000000
     16.98499999999999943157	     31.37890498005058859121	    -11.08415524733139712055	    178.65208397187751643287	      0.35559120767231772176	      0.67126676684238206771	     -0.59159791036990516666	     97.63897827303212295647	     -7.65072683835654032691	     11.55191472231680904770	     87.09039391582442135586	      1.52001412068997354687	     22.82333487302980401523	      0.00000000000000000000	      0.00000000000000000000	     90.79877700197607737209	     -4.70750016173325391833	    -11.02595346132300591080	     85.72717654413901300359	      1.49622148913367980505	     26.44247545141175592676	      0.00000000000000000000	      0.00000000000000000000	    -39.01218806992012133605	     -8.11100046613855774069	     -6.50737449096255993197	     55.26437635251127744596	    -13.59941555153700676328	     39.36549575359880748238	     11.18816855163414025753	      6.85478722540215645864	      0.00000000000000000000	      0.00000000000000000000	     62.74836491710254193777	    -16.66191784928617281025	     39.64140493360036288095	     15.59789273380025242943	     87.61382064809264136329	      0.00000000000000000000	      0.00000000000000000000
     16.98999999999999843681	     31.43296762143645395327	    -11.08154574105408762819	    178.58757465251377993809	      0.35533918798969932329	      0.67165613394913947776	     -0.59165795874505344720	     97.63651070718080404731	     -7.58595970844925027166	     11.54313895484734331376	     87.04726820745406712376	      1.51926143508665600912	     22.79357047212264930636	      0.00000000000000000000	      0.00000000000000000000	     90.79436922660265452123	     -4.81860945477483681998	    -11.06435372763061941725	     85.70989753058181293000	      1.49591991345560981763	     26.44516649027591270738	      0.00000000000000000000	      0.00000000000000000000	    -39.00655014471761461436	     -8.16356260086500462592	     -6.45267878399513072907	     55.24257018285874210051	    -13.57368448449793874033	     39.36602835118001308956	     11.18576601487357535802	      6.85390403777795498286	      0.00000000000000000000	      0.00000000000000000000	     62.76094513880448033660	    -16.64609724189295647534	     39.63352868616869528751	     15.61007577178470562274	     87.61462767114902305821	      0.00000000000000000000	      0.00000000000000000000
